PathFileType	4	(x/y/z)	S02_P20_T25
DataRate	CameraRate	NumFrames	NumMarkers	Units	OrigDataRate	OrigDataStartFrame	OrigNumFrames
240	240	9	51	mm	240	1	362
Frame#	Time	Sternum			R.Acromium			L.Acromium			Top.Head			R.ASIS			L.ASIS			R.PSIS			L.PSIS			R.Great.Tro			L.Great.Tro			R.Iliac.Crest			L.Iliac.Crest			V.Sacral			R.Thigh.Upper.Post			R.Thigh.Lower.Ant			R.Thigh.Lower.Post			R.Thigh.Upper.Ant			R.Knee.Lat			R.Knee.Med			R.Shank.Upper.Post			R.Shank.Lower.Ant			R.Shank.Lower.Post			R.Shank.Upper.Ant			R.Ankle.Lat			R.Ankle.Med			R.Heel.Upper			R.Heel.Med			R.Heel.Lat			R.Toe.Lat			R.Toe.Med			R.Toe.Tip			L.Thigh.Upper.Post			L.Thigh.Lower.Ant			L.Thigh.Lower.Post			L.Thigh.Upper.Ant			L.Knee.Lat			L.Knee.Med			L.Shank.Upper.Post			L.Shank.Lower.Ant			L.Shank.Lower.Post			L.Shank.Upper.Ant			L.Ankle.Lat			L.Ankle.Med			L.Heel.Upper			L.Heel.Med			L.Heel.Lat			L.Toe.Lat			L.Toe.Med			L.Toe.Tip			Cervical.Spine			Back			
		X1	Y1	Z1	X2	Y2	Z2	X3	Y3	Z3	X4	Y4	Z4	X5	Y5	Z5	X6	Y6	Z6	X7	Y7	Z7	X8	Y8	Z8	X9	Y9	Z9	X10	Y10	Z10	X11	Y11	Z11	X12	Y12	Z12	X13	Y13	Z13	X14	Y14	Z14	X15	Y15	Z15	X16	Y16	Z16	X17	Y17	Z17	X18	Y18	Z18	X19	Y19	Z19	X20	Y20	Z20	X21	Y21	Z21	X22	Y22	Z22	X23	Y23	Z23	X24	Y24	Z24	X25	Y25	Z25	X26	Y26	Z26	X27	Y27	Z27	X28	Y28	Z28	X29	Y29	Z29	X30	Y30	Z30	X31	Y31	Z31	X32	Y32	Z32	X33	Y33	Z33	X34	Y34	Z34	X35	Y35	Z35	X36	Y36	Z36	X37	Y37	Z37	X38	Y38	Z38	X39	Y39	Z39	X40	Y40	Z40	X41	Y41	Z41	X42	Y42	Z42	X43	Y43	Z43	X44	Y44	Z44	X45	Y45	Z45	X46	Y46	Z46	X47	Y47	Z47	X48	Y48	Z48	X49	Y49	Z49	X50	Y50	Z50	X51	Y51	Z51	

1	0	NaN	NaN	NaN	-1389	1345.6	495.51	-1419.5	1354.6	204.32	-1309.8	1626.7	340.79	NaN	NaN	NaN	-1333.1	937.07	239.76	-1552.4	980.41	387.93	-1559.4	987.85	313.34	-1429.6	823.8	536.14	-1444.8	846.34	143.26	-1437.1	980.98	501.23	-1454.2	985.7	171.54	-1584.7	938.6	344.75	-1464.8	618.59	511.42	-1435.9	530.13	472.36	-1506.1	540	492.04	-1401.6	614	489.52	-1507.1	457.74	475.41	-1531.4	450.33	330.54	-1627.9	270.66	457	-1638.9	199.32	450.47	NaN	NaN	NaN	-1561	244.93	456.7	-1641.5	101.76	432.75	-1633.4	115.16	346.79	-1702.7	88.869	377.23	-1686.3	54.633	350.9	-1700.7	58.348	413.47	-1538.9	44.892	458.29	-1503.8	37.805	352.92	-1454.4	62.845	408.86	-1377.2	609.8	169.17	-1274.5	569.37	168.14	-1341.2	530.32	192.45	-1322.3	650.38	148.91	-1254.5	492.92	181.03	-1246.3	494.44	320.33	NaN	NaN	NaN	-1224.5	240.35	193.24	-1300.3	245.85	206.26	-1243.2	313.43	178.58	-1249.3	128.02	208.77	-1229.2	130.49	287.58	-1300.2	88.149	250.95	-1286.8	68.483	285.82	-1293.3	57.799	225.53	-1131.3	62.787	181.87	-1104.7	90.484	285.77	-1050.7	107.93	232.17	-1482.9	1411.1	359.4	-1557.3	1159.2	369.67
2	0.0041667	NaN	NaN	NaN	-1384.1	1344.6	495.05	-1414.7	1353.6	203.99	-1305.3	1625.6	340.27	NaN	NaN	NaN	-1328	935.89	239.72	-1547.8	979.2	387.31	-1554.5	986.56	312.72	-1425.5	822.96	536.17	-1439.4	845.07	142.94	-1432.9	979.82	501.02	-1449.1	984.61	171.18	-1579.9	937.34	344.05	-1461.2	617.89	511.34	-1432	529.41	472.21	-1502.6	539.35	491.82	-1397.8	613.04	489.51	-1503.9	457.11	475.23	-1528.1	449.86	330.3	-1626.1	270.92	456.96	-1637.1	199.29	450.36	NaN	NaN	NaN	-1559.3	244.64	456.62	-1641.4	102.11	432.8	-1632.9	115.54	346.79	-1702.4	89.334	377.26	-1686.2	55.11	350.9	-1700.6	58.762	413.46	-1538.8	44.789	458.28	-1503.7	37.706	352.93	-1454.2	62.599	408.89	-1371.7	608.92	168.52	-1269.1	568.34	168.35	-1335.8	529.35	192.12	-1316.6	649.34	148.54	-1249.6	491.77	181.26	-1243.1	492.62	320.88	NaN	NaN	NaN	-1218	239.47	193.04	-1293.6	244.1	205.9	-1237.3	312.45	178.51	-1241.4	126.75	208.49	-1221.6	129.53	287.43	-1291.9	86.093	250.44	-1278.3	66.671	285.36	-1284.4	55.89	225.03	-1122.5	63.136	182.15	-1096.7	91.127	285.87	-1042.7	109.43	232.64	-1478.4	1410.1	359.09	-1552.6	1158.1	369.47
3	0.0083333	-1285.2	1107.4	336.74	-1379.1	1343.5	494.57	-1409.8	1352.5	203.63	-1300.6	1624.5	339.74	NaN	NaN	NaN	-1322.7	934.66	239.68	-1542.9	977.93	386.65	-1549.5	985.22	312.07	-1421.2	822.08	536.18	-1433.7	843.74	142.63	-1428.5	978.6	500.81	-1443.7	983.45	170.8	-1574.9	936.03	343.31	-1457.4	617.15	511.25	-1427.9	528.65	472.05	-1498.8	538.65	491.58	-1393.8	612.03	489.51	-1500.4	456.43	475.04	-1524.5	449.34	330.06	-1624.2	271.22	456.91	-1635.3	199.27	450.25	NaN	NaN	NaN	-1557.5	244.35	456.53	-1641.2	102.51	432.85	-1632.5	115.95	346.82	-1702.2	89.847	377.31	-1686.1	55.639	350.9	-1700.5	59.224	413.46	-1538.7	44.676	458.27	-1503.6	37.606	352.94	-1454.1	62.34	408.92	-1366	608.01	167.87	-1263.4	567.27	168.57	-1330.2	528.34	191.78	-1310.6	648.28	148.2	-1244.5	490.57	181.49	-1239.6	490.75	321.42	NaN	NaN	NaN	-1211.5	238.51	192.86	-1286.8	242.32	205.56	-1231.2	311.41	178.46	-1233.5	125.41	208.23	-1213.9	128.5	287.28	-1283.5	83.992	249.93	-1269.7	64.805	284.91	-1275.5	53.937	224.53	-1113.5	63.4	182.46	-1088.6	91.678	286.01	-1034.7	110.82	233.16	-1473.6	1409	358.74	-1547.6	1157	369.25
4	0.0125	-1280.4	1106.2	336.47	-1373.9	1342.4	494.07	-1404.7	1351.4	203.24	-1295.8	1623.4	339.18	NaN	NaN	NaN	-1317.2	933.36	239.65	-1537.9	976.61	385.97	-1544.2	983.84	311.4	-1416.7	821.17	536.16	-1427.7	842.36	142.31	-1424	977.33	500.6	-1438.1	982.24	170.4	-1569.7	934.68	342.56	-1453.3	616.37	511.15	-1423.6	527.85	471.89	-1494.9	537.91	491.34	-1389.7	610.98	489.5	-1496.7	455.71	474.83	-1520.8	448.78	329.82	-1622.1	271.53	456.86	-1633.3	199.26	450.13	NaN	NaN	NaN	-1555.6	244.05	456.43	-1641.1	102.96	432.91	-1631.9	116.39	346.85	-1701.9	90.416	377.37	-1686	56.228	350.91	-1700.5	59.739	413.46	-1538.6	44.556	458.27	-1503.5	37.51	352.96	-1453.9	62.068	408.95	-1360.1	607.08	167.22	-1257.5	566.18	168.83	-1324.5	527.31	191.42	-1304.5	647.2	147.9	-1239.3	489.32	181.73	-1236	488.85	321.94	NaN	NaN	NaN	-1204.9	237.48	192.7	-1280	240.52	205.23	-1225.1	310.29	178.42	-1225.5	124.03	207.99	-1206.3	127.39	287.16	-1275.2	81.873	249.43	-1261.1	62.902	284.47	-1266.6	51.963	224.04	-1104.7	63.554	182.81	-1080.6	92.105	286.21	-1026.7	112.06	233.73	-1468.7	1407.9	358.36	-1542.5	1155.8	368.99
5	0.016667	-1275.4	1104.9	336.18	-1368.5	1341.2	493.54	-1399.5	1350.3	202.81	-1291	1622.2	338.62	NaN	NaN	NaN	-1311.6	932.02	239.62	-1532.6	975.25	385.25	-1538.8	982.43	310.7	-1412.1	820.24	536.12	-1421.7	840.93	142	-1419.3	976.03	500.38	-1432.4	980.98	169.97	-1564.4	933.31	341.77	-1449.1	615.55	511.03	-1419.2	527.01	471.72	-1490.7	537.12	491.09	-1385.4	609.91	489.48	-1492.9	454.94	474.61	-1516.9	448.16	329.57	-1619.9	271.88	456.8	-1631.3	199.27	450	NaN	NaN	NaN	-1553.6	243.74	456.34	-1640.9	103.46	432.98	-1631.4	116.87	346.91	-1701.5	91.048	377.44	-1685.9	56.884	350.92	-1700.4	60.315	413.46	-1538.6	44.427	458.26	-1503.4	37.417	352.97	-1453.7	61.783	408.98	-1354	606.13	166.59	-1251.5	565.08	169.1	-1318.6	526.25	191.06	-1298.2	646.12	147.65	-1233.9	488.03	181.97	-1232.1	486.94	322.43	NaN	NaN	NaN	-1198.4	236.37	192.58	-1273.4	238.73	204.92	-1219	309.11	178.39	-1217.7	122.6	207.78	-1198.8	126.21	287.07	-1267.1	79.76	248.96	-1252.8	60.98	284.04	-1257.9	49.99	223.57	-1096	63.579	183.19	-1072.7	92.378	286.47	-1018.9	113.11	234.37	-1463.7	1406.8	357.95	-1537.2	1154.6	368.7
6	0.020833	-1270.1	1103.6	335.88	-1363.1	1340	492.99	-1394.1	1349.1	202.36	-1286.1	1621	338.04	NaN	NaN	NaN	-1305.7	930.64	239.59	-1527.3	973.86	384.52	-1533.3	981	309.98	-1407.4	819.29	536.04	-1415.4	839.46	141.7	-1414.5	974.7	500.16	-1426.5	979.67	169.53	-1559	931.91	340.97	-1444.8	614.7	510.89	-1414.6	526.14	471.55	-1486.4	536.3	490.83	-1380.9	608.81	489.45	-1488.8	454.14	474.37	-1512.8	447.5	329.31	-1617.7	272.25	456.73	-1629.1	199.29	449.87	NaN	NaN	NaN	-1551.5	243.44	456.24	-1640.8	104.03	433.06	-1630.7	117.38	346.99	-1701.2	91.751	377.52	-1685.8	57.618	350.93	-1700.3	60.962	413.47	-1538.5	44.29	458.25	-1503.4	37.329	352.99	-1453.5	61.488	409.01	-1347.9	605.17	165.98	-1245.4	563.96	169.41	-1312.6	525.18	190.69	-1291.7	645.03	147.46	-1228.5	486.7	182.2	-1228.1	485.04	322.88	NaN	NaN	NaN	-1192	235.18	192.49	-1266.8	236.95	204.64	-1212.9	307.85	178.39	-1210.2	121.13	207.61	-1191.6	124.96	287.02	-1259.2	77.677	248.51	-1244.8	59.058	283.65	-1249.5	48.041	223.12	-1087.5	63.456	183.62	-1065.1	92.467	286.81	-1011.3	113.92	235.07	-1458.5	1405.7	357.5	-1531.8	1153.4	368.37
7	0.025	-1264.8	1102.3	335.56	-1357.7	1338.8	492.42	-1388.6	1348	201.87	-1281.1	1619.8	337.45	NaN	NaN	NaN	-1299.8	929.22	239.56	-1521.7	972.43	383.77	-1527.7	979.55	309.25	-1402.5	818.32	535.92	-1409.1	837.96	141.42	-1409.7	973.35	499.94	-1420.5	978.33	169.06	-1553.4	930.51	340.16	-1440.2	613.82	510.73	-1409.8	525.24	471.37	-1481.9	535.45	490.57	-1376.3	607.69	489.42	-1484.6	453.29	474.13	-1508.5	446.79	329.06	-1615.3	272.66	456.67	-1626.9	199.34	449.74	NaN	NaN	NaN	-1549.3	243.14	456.15	-1640.6	104.66	433.16	-1630	117.93	347.09	-1700.8	92.536	377.62	-1685.6	58.439	350.95	-1700.2	61.689	413.49	-1538.4	44.147	458.25	-1503.3	37.248	353	-1453.3	61.185	409.04	-1341.6	604.21	165.39	-1239.3	562.83	169.73	-1306.5	524.09	190.32	-1285.2	643.95	147.33	-1223	485.33	182.43	-1223.9	483.16	323.28	NaN	NaN	NaN	-1185.7	233.91	192.45	-1260.5	235.2	204.4	-1206.9	306.52	178.41	-1202.9	119.64	207.47	-1184.6	123.64	287.03	-1251.6	75.646	248.11	-1237.1	57.153	283.29	-1241.4	46.137	222.71	-1079.5	63.167	184.08	-1057.9	92.346	287.21	-1004.1	114.45	235.84	-1453.3	1404.6	357.01	-1526.3	1152.2	367.99
8	0.029167	-1259.3	1100.9	335.22	-1352.2	1337.6	491.84	-1383.1	1346.8	201.35	-1276.1	1618.6	336.84	NaN	NaN	NaN	-1293.8	927.77	239.54	-1516.1	970.99	383	-1521.9	978.11	308.5	-1397.6	817.34	535.77	-1402.7	836.44	141.14	-1404.7	971.98	499.71	-1414.4	976.95	168.57	-1547.7	929.1	339.33	-1435.6	612.91	510.56	-1405	524.31	471.19	-1477.3	534.56	490.31	-1371.6	606.57	489.37	-1480.3	452.41	473.87	-1504	446.03	328.81	-1612.8	273.11	456.59	-1624.5	199.4	449.6	NaN	NaN	NaN	-1547	242.85	456.07	-1640.5	105.35	433.27	-1629.3	118.53	347.23	-1700.4	93.413	377.74	-1685.5	59.358	350.97	-1700.1	62.51	413.51	-1538.3	43.999	458.25	-1503.2	37.173	353.02	-1453.1	60.876	409.07	-1335.3	603.23	164.84	-1233	561.69	170.08	-1300.5	522.99	189.96	-1278.7	642.88	147.26	-1217.4	483.93	182.64	-1219.5	481.3	323.62	NaN	NaN	NaN	-1179.6	232.56	192.46	-1254.4	233.48	204.19	-1201	305.13	178.47	-1195.9	118.13	207.4	-1178	122.26	287.1	-1244.5	73.688	247.75	-1229.9	55.28	282.97	-1233.9	44.299	222.35	-1071.9	62.7	184.59	-1051.1	91.991	287.68	-997.19	114.66	236.67	-1448	1403.4	356.49	-1520.8	1150.9	367.56
9	0.033333	-1253.6	1099.5	334.87	-1346.7	1336.4	491.23	-1377.4	1345.6	200.79	-1271.1	1617.4	336.23	NaN	NaN	NaN	-1287.7	926.31	239.51	-1510.3	969.54	382.21	-1516.1	976.66	307.75	-1392.6	816.35	535.58	-1396.2	834.92	140.89	-1399.7	970.59	499.48	-1408.2	975.55	168.06	-1542	927.69	338.49	-1430.7	611.98	510.37	-1399.9	523.36	471.02	-1472.4	533.63	490.04	-1366.7	605.44	489.32	-1475.7	451.5	473.61	-1499.2	445.21	328.57	-1610.2	273.6	456.51	-1622	199.48	449.46	NaN	NaN	NaN	-1544.7	242.58	455.99	-1640.3	106.11	433.4	-1628.4	119.18	347.39	-1700	94.395	377.87	-1685.3	60.388	351.01	-1700	63.436	413.54	-1538.2	43.846	458.24	-1503.1	37.105	353.03	-1452.9	60.564	409.1	-1329	602.26	164.34	-1226.8	560.55	170.45	-1294.4	521.89	189.61	-1272.1	641.81	147.26	-1211.9	482.5	182.85	-1215	479.49	323.91	NaN	NaN	NaN	-1173.7	231.13	192.53	-1248.7	231.8	204.03	-1195.3	303.67	178.56	-1189.4	116.61	207.38	-1171.8	120.82	287.24	-1237.9	71.824	247.44	-1223.3	53.454	282.7	-1226.9	42.546	222.03	-1064.8	62.049	185.13	-1044.7	91.384	288.23	-990.74	114.55	237.57	-1442.6	1402.3	355.92	-1515.2	1149.6	367.08
